Coordinates
version=1
nRows=12
nColumns=24
inDegrees=yes

Units are S.I. units (second, meters, Newtons, ...)
Angles are in degrees.

endheader
time	pelvis_tilt	pelvis_list	pelvis_rotation	pelvis_tx	pelvis_ty	pelvis_tz	hip_flexion_r	hip_adduction_r	hip_rotation_r	knee_angle_r	ankle_angle_r	subtalar_angle_r	mtp_angle_r	hip_flexion_l	hip_adduction_l	hip_rotation_l	knee_angle_l	ankle_angle_l	subtalar_angle_l	mtp_angle_l	lumbar_extension	lumbar_bending	lumbar_rotation
      1.84000000	      8.79549790	     -1.40132900	      2.37168987	      0.48089742	      1.01839570	      0.03147912	     -0.17596224	      0.45058378	    -20.66534527	    -16.68959695	     -0.97428963	     13.73412377	      1.39185507	      2.12592552	     -6.26551299	    -12.52638028	    -50.37958212	     -5.40687725	    -15.45681778	     16.99301660	    -17.46837879	     15.11446729	     40.96871278
      1.84500000	      8.82988965	     -1.41293904	      2.09391560	      0.48683672	      1.01916733	      0.03201085	     -0.72316617	      0.52946286	    -20.42207651	    -16.40237479	     -0.56867751	     13.95964484	     -0.55772036	      2.58369681	     -6.19954524	    -12.75068093	    -49.64688207	     -4.98059108	    -15.33518741	     16.70873720	    -17.56276325	     15.03911153	     41.22007121
      1.85000000	      8.86505518	     -1.40794216	      1.81021198	      0.49275867	      1.01986844	      0.03253007	     -1.26310375	      0.58037783	    -20.19305379	    -16.11483574	     -0.42131650	     14.14382475	     -0.55573758	      3.02179259	     -6.11058193	    -12.97305165	    -48.84750842	     -4.63696075	    -15.25431461	     16.76041639	    -17.66383281	     14.94177478	     41.48317335
      1.85500000	      8.89674018	     -1.42025056	      1.52319707	      0.49868271	      1.02049906	      0.03304797	     -1.79744630	      0.64580492	    -19.94380055	    -15.82487664	     -0.28211773	     14.29948525	     -0.57082890	      3.45099451	     -6.04563712	    -13.20903674	    -48.00628857	     -4.33443014	    -15.17176122	     16.79537458	    -17.75984648	     14.86593473	     41.76193442
      1.86000000	      8.92971602	     -1.43531042	      1.23352304	      0.50459060	      1.02105877	      0.03356182	     -2.32674125	      0.70799382	    -19.67763175	    -15.54656491	     -0.12839319	     14.44142947	     -0.59369631	      3.86589119	     -5.98518700	    -13.45274080	    -47.12153453	     -4.06417647	    -15.09792958	     16.81446719	    -17.86106922	     14.78903860	     42.02962058
      1.86500000	      8.95612175	     -1.45540284	      0.93907402	      0.51049198	      1.02154679	      0.03409759	     -2.84348963	      0.77151867	    -19.40085595	    -15.27659420	      0.03185432	     14.56744114	     -0.62866800	      4.27529384	     -5.93447646	    -13.70288294	    -46.19803979	     -3.84874741	    -15.03258639	     16.81430161	    -17.95682979	     14.71007994	     42.31015166
      1.87000000	      8.98416216	     -1.48664274	      0.64094160	      0.51638672	      1.02196224	      0.03462693	     -3.35571450	      0.83951486	    -19.10982209	    -15.01893842	      0.20359113	     14.68654840	     -0.67007472	      4.66968604	     -5.89807752	    -13.96243667	    -45.23895029	     -3.66708734	    -14.99154100	     16.79764243	    -18.05647110	     14.64321565	     42.59346366
      1.87500000	      9.00941216	     -1.52222147	      0.33921501	      0.52227870	      1.02231388	      0.03514273	     -3.86009021	      0.90468329	    -18.81243356	    -14.77067931	      0.38199184	     14.79386926	     -0.72333101	      5.05265603	     -5.86814274	    -14.23384917	    -44.24353233	     -3.53529493	    -14.97063047	     16.75988947	    -18.15433853	     14.58418273	     42.89844415
      1.88000000	      9.03413327	     -1.56384174	      0.03516656	      0.52813561	      1.02258683	      0.03564411	     -4.35460995	      0.96829052	    -18.49639758	    -14.53655860	      0.57076609	     14.87106312	     -0.83432734	      5.42824820	     -5.84488827	    -14.50282103	    -43.22176187	     -3.44551287	    -14.96192372	     16.67598955	    -18.26232324	     14.53422264	     43.22783659
      1.88500000	      9.05203099	     -1.61928554	     -0.26999936	      0.53402810	      1.02278056	      0.03617528	     -4.84162907	      1.04265988	    -18.19347947	    -14.31184339	      0.77895334	     14.97925543	     -0.90031138	      5.79569147	     -5.84770132	    -14.80681621	    -42.17567805	     -3.38530378	    -15.00120278	     16.60091259	    -18.35150210	     14.48490879	     43.50074532
      1.89000000	      9.06612396	     -1.68107045	     -0.57539073	      0.53989139	      1.02289280	      0.03667195	     -5.31635914	      1.11437348	    -17.88202966	    -14.09954551	      0.98703855	     15.06448331	     -0.97655315	      6.16032729	     -5.85623042	    -15.10941175	    -41.11006130	     -3.36965235	    -15.05544434	     16.50408783	    -18.44741428	     14.45197662	     43.81285035
      1.89500000	      9.07997180	     -1.75301051	     -0.87953151	      0.54575636	      1.02293624	      0.03715699	     -5.78765346	      1.19016915	    -17.57099589	    -13.89636636	      1.20362915	     15.15056588	     -1.05358820	      6.51373617	     -5.87943881	    -15.42634110	    -40.02372157	     -3.38591610	    -15.12670542	     16.39048496	    -18.54132808	     14.43123533	     44.11746718
